<svg width="258" height="258" viewBox="0 0 258 258" fill="none" xmlns="http://www.w3.org/2000/svg">
<path d="M92.63 132.21V138H91.28V132.21H85.64V138H84.29V132.21H78.5V130.86H84.29V125.22H78.5V123.87H84.29V118.05H85.64V123.87H91.28V118.05H92.63V123.87H98.45V125.22H92.63V130.86H98.45V132.21H92.63ZM91.28 125.22H85.64V130.86H91.28V125.22ZM107.829 138.15C106.809 138.15 105.829 137.95 104.889 137.55C103.949 137.15 103.139 136.61 102.459 135.93C101.759 135.23 101.209 134.43 100.809 133.53C100.429 132.61 100.239 131.65 100.239 130.65C100.239 129.65 100.429 128.7 100.809 127.8C101.209 126.88 101.759 126.07 102.459 125.37C103.139 124.69 103.949 124.15 104.889 123.75C105.829 123.35 106.809 123.15 107.829 123.15C109.289 123.15 110.529 123.42 111.549 123.96C112.589 124.48 113.449 125.34 114.129 126.54V118.08H115.449V138H114.129V134.88C113.469 136.06 112.609 136.9 111.549 137.4C110.489 137.9 109.249 138.15 107.829 138.15ZM107.829 124.53C106.989 124.53 106.189 124.69 105.429 125.01C104.669 125.33 104.009 125.77 103.449 126.33C102.869 126.91 102.419 127.57 102.099 128.31C101.779 129.05 101.619 129.83 101.619 130.65C101.619 131.47 101.779 132.26 102.099 133.02C102.439 133.78 102.889 134.44 103.449 135C104.009 135.56 104.669 136 105.429 136.32C106.189 136.64 106.989 136.8 107.829 136.8C108.669 136.8 109.469 136.64 110.229 136.32C111.009 136 111.679 135.56 112.239 135C112.799 134.44 113.239 133.78 113.559 133.02C113.899 132.26 114.069 131.47 114.069 130.65C114.069 129.83 113.899 129.05 113.559 128.31C113.239 127.55 112.789 126.89 112.209 126.33C111.629 125.77 110.959 125.33 110.199 125.01C109.459 124.69 108.669 124.53 107.829 124.53ZM124.86 138.15C123.82 138.15 122.84 137.96 121.92 137.58C121.02 137.18 120.21 136.63 119.49 135.93C118.79 135.25 118.24 134.45 117.84 133.53C117.44 132.59 117.24 131.61 117.24 130.59C117.24 129.57 117.44 128.6 117.84 127.68C118.24 126.74 118.79 125.93 119.49 125.25C120.21 124.55 121.02 124.01 121.92 123.63C122.84 123.23 123.82 123.03 124.86 123.03C125.92 123.03 126.91 123.23 127.83 123.63C128.77 124.03 129.6 124.6 130.32 125.34L129.09 126.06C128.53 125.52 127.89 125.11 127.17 124.83C126.45 124.55 125.68 124.41 124.86 124.41C124.02 124.41 123.22 124.57 122.46 124.89C121.72 125.21 121.06 125.65 120.48 126.21C119.9 126.77 119.44 127.43 119.1 128.19C118.78 128.95 118.62 129.75 118.62 130.59C118.62 131.43 118.78 132.23 119.1 132.99C119.44 133.75 119.9 134.41 120.48 134.97C121.06 135.53 121.72 135.97 122.46 136.29C123.22 136.61 124.02 136.77 124.86 136.77C125.68 136.77 126.45 136.63 127.17 136.35C127.89 136.07 128.53 135.66 129.09 135.12L130.32 135.84C129.6 136.58 128.77 137.15 127.83 137.55C126.91 137.95 125.92 138.15 124.86 138.15ZM135.289 124.44V138H133.849V124.44H132.109V123.12H133.819C133.819 121.62 134.329 120.41 135.349 119.49C136.369 118.55 137.639 118.02 139.159 117.9V119.25C138.079 119.37 137.159 119.78 136.399 120.48C135.659 121.16 135.289 122.04 135.289 123.12H138.859V124.44H135.289ZM146.76 138.15C145.74 138.15 144.76 137.95 143.82 137.55C142.88 137.15 142.07 136.61 141.39 135.93C140.69 135.23 140.14 134.43 139.74 133.53C139.36 132.61 139.17 131.65 139.17 130.65C139.17 129.65 139.36 128.7 139.74 127.8C140.14 126.88 140.69 126.07 141.39 125.37C142.07 124.69 142.88 124.15 143.82 123.75C144.76 123.35 145.74 123.15 146.76 123.15C148.22 123.15 149.46 123.42 150.48 123.96C151.52 124.48 152.38 125.34 153.06 126.54V118.08H154.38V138H153.06V134.88C152.4 136.06 151.54 136.9 150.48 137.4C149.42 137.9 148.18 138.15 146.76 138.15ZM146.76 124.53C145.92 124.53 145.12 124.69 144.36 125.01C143.6 125.33 142.94 125.77 142.38 126.33C141.8 126.91 141.35 127.57 141.03 128.31C140.71 129.05 140.55 129.83 140.55 130.65C140.55 131.47 140.71 132.26 141.03 133.02C141.37 133.78 141.82 134.44 142.38 135C142.94 135.56 143.6 136 144.36 136.32C145.12 136.64 145.92 136.8 146.76 136.8C147.6 136.8 148.4 136.64 149.16 136.32C149.94 136 150.61 135.56 151.17 135C151.73 134.44 152.17 133.78 152.49 133.02C152.83 132.26 153 131.47 153 130.65C153 129.83 152.83 129.05 152.49 128.31C152.17 127.55 151.72 126.89 151.14 126.33C150.56 125.77 149.89 125.33 149.13 125.01C148.39 124.69 147.6 124.53 146.76 124.53ZM163.791 138.15C162.751 138.15 161.771 137.96 160.851 137.58C159.951 137.18 159.141 136.63 158.421 135.93C157.721 135.25 157.171 134.45 156.771 133.53C156.371 132.59 156.171 131.61 156.171 130.59C156.171 129.57 156.371 128.6 156.771 127.68C157.171 126.74 157.721 125.93 158.421 125.25C159.141 124.55 159.951 124.01 160.851 123.63C161.771 123.23 162.751 123.03 163.791 123.03C164.851 123.03 165.841 123.23 166.761 123.63C167.701 124.03 168.531 124.6 169.251 125.34L168.021 126.06C167.461 125.52 166.821 125.11 166.101 124.83C165.381 124.55 164.611 124.41 163.791 124.41C162.951 124.41 162.151 124.57 161.391 124.89C160.651 125.21 159.991 125.65 159.411 126.21C158.831 126.77 158.371 127.43 158.031 128.19C157.711 128.95 157.551 129.75 157.551 130.59C157.551 131.43 157.711 132.23 158.031 132.99C158.371 133.75 158.831 134.41 159.411 134.97C159.991 135.53 160.651 135.97 161.391 136.29C162.151 136.61 162.951 136.77 163.791 136.77C164.611 136.77 165.381 136.63 166.101 136.35C166.821 136.07 167.461 135.66 168.021 135.12L169.251 135.84C168.531 136.58 167.701 137.15 166.761 137.55C165.841 137.95 164.851 138.15 163.791 138.15ZM174.219 124.44V138H172.779V124.44H171.039V123.12H172.749C172.749 121.62 173.259 120.41 174.279 119.49C175.299 118.55 176.569 118.02 178.089 117.9V119.25C177.009 119.37 176.089 119.78 175.329 120.48C174.589 121.16 174.219 122.04 174.219 123.12H177.789V124.44H174.219Z" fill="#74787D"/>
<path d="M146.795 7.91204L202.039 30.7951C213.433 35.5145 222.485 44.5669 227.205 55.9607L250.088 111.205C254.807 122.599 254.807 135.401 250.088 146.795L227.205 202.039C222.485 213.433 213.433 222.485 202.039 227.205L146.795 250.088C135.401 254.807 122.599 254.807 111.205 250.088L55.9607 227.205C44.5669 222.485 35.5145 213.433 30.7951 202.039L7.91203 146.795C3.19256 135.401 3.19257 122.599 7.91204 111.205L30.7951 55.9607C35.5145 44.5669 44.5669 35.5145 55.9607 30.7951L111.205 7.91203C122.599 3.19256 135.401 3.19257 146.795 7.91204Z" stroke="#74787D"/>
</svg>
