<svg width="258" height="258" viewBox="0 0 258 258" fill="none" xmlns="http://www.w3.org/2000/svg">
<path d="M119.63 132.21V138H118.28V132.21H112.64V138H111.29V132.21H105.5V130.86H111.29V125.22H105.5V123.87H111.29V118.05H112.64V123.87H118.28V118.05H119.63V123.87H125.45V125.22H119.63V130.86H125.45V132.21H119.63ZM118.28 125.22H112.64V130.86H118.28V125.22ZM130.719 124.44V138H129.279V124.44H127.539V123.12H129.249C129.249 121.62 129.759 120.41 130.779 119.49C131.799 118.55 133.069 118.02 134.589 117.9V119.25C133.509 119.37 132.589 119.78 131.829 120.48C131.089 121.16 130.719 122.04 130.719 123.12H134.289V124.44H130.719ZM139.282 124.44V138H137.842V124.44H136.102V123.12H137.812C137.812 121.62 138.322 120.41 139.342 119.49C140.362 118.55 141.632 118.02 143.152 117.9V119.25C142.072 119.37 141.152 119.78 140.392 120.48C139.652 121.16 139.282 122.04 139.282 123.12H142.852V124.44H139.282ZM147.845 124.44V138H146.405V124.44H144.665V123.12H146.375C146.375 121.62 146.885 120.41 147.905 119.49C148.925 118.55 150.195 118.02 151.715 117.9V119.25C150.635 119.37 149.715 119.78 148.955 120.48C148.215 121.16 147.845 122.04 147.845 123.12H151.415V124.44H147.845Z" fill="#74787D"/>
<path d="M146.795 7.91204L202.039 30.7951C213.433 35.5145 222.485 44.5669 227.205 55.9607L250.088 111.205C254.807 122.599 254.807 135.401 250.088 146.795L227.205 202.039C222.485 213.433 213.433 222.485 202.039 227.205L146.795 250.088C135.401 254.807 122.599 254.807 111.205 250.088L55.9607 227.205C44.5669 222.485 35.5145 213.433 30.7951 202.039L7.91203 146.795C3.19256 135.401 3.19257 122.599 7.91204 111.205L30.7951 55.9607C35.5145 44.5669 44.5669 35.5145 55.9607 30.7951L111.205 7.91203C122.599 3.19256 135.401 3.19257 146.795 7.91204Z" stroke="#74787D"/>
</svg>
