<svg width="401" height="401" viewBox="0 0 401 401" fill="none" xmlns="http://www.w3.org/2000/svg">
<path d="M144.05 205.35V215H141.8V205.35H132.4V215H130.15V205.35H120.5V203.1H130.15V193.7H120.5V191.45H130.15V181.75H132.4V191.45H141.8V181.75H144.05V191.45H153.75V193.7H144.05V203.1H153.75V205.35H144.05ZM141.8 193.7H132.4V203.1H141.8V193.7ZM162.532 192.4V215H160.132V192.4H157.232V190.2H160.082C160.082 187.7 160.932 185.683 162.632 184.15C164.332 182.583 166.449 181.7 168.982 181.5V183.75C167.182 183.95 165.649 184.633 164.382 185.8C163.149 186.933 162.532 188.4 162.532 190.2H168.482V192.4H162.532ZM171.352 203.8C171.885 206.567 173.102 208.783 175.002 210.45C176.869 212.117 179.069 212.95 181.602 212.95C183.335 212.95 184.919 212.567 186.352 211.8C187.785 211.033 189.002 209.983 190.002 208.65L192.002 209.75C190.802 211.45 189.302 212.8 187.502 213.8C185.702 214.767 183.735 215.25 181.602 215.25C179.902 215.25 178.285 214.933 176.752 214.3C175.219 213.633 173.869 212.717 172.702 211.55C171.535 210.383 170.619 209.033 169.952 207.5C169.319 205.967 169.002 204.35 169.002 202.65C169.002 200.95 169.319 199.333 169.952 197.8C170.619 196.233 171.535 194.867 172.702 193.7C173.835 192.533 175.169 191.633 176.702 191C178.269 190.367 179.902 190.05 181.602 190.05C183.302 190.05 184.919 190.367 186.452 191C188.019 191.633 189.369 192.533 190.502 193.7C191.569 194.8 192.452 196.217 193.152 197.95C193.885 199.683 194.252 201.367 194.252 203L194.202 203.8H171.352ZM181.602 192.3C179.069 192.3 176.869 193.133 175.002 194.8C173.102 196.467 171.885 198.683 171.352 201.45H191.852C191.319 198.683 190.102 196.467 188.202 194.8C186.335 193.133 184.135 192.3 181.602 192.3ZM202.55 192.4V215H200.15V192.4H197.25V190.2H200.1C200.1 187.7 200.95 185.683 202.65 184.15C204.35 182.583 206.467 181.7 209 181.5V183.75C207.2 183.95 205.667 184.633 204.4 185.8C203.167 186.933 202.55 188.4 202.55 190.2H208.5V192.4H202.55ZM221.67 215.25C219.97 215.25 218.336 214.917 216.77 214.25C215.203 213.583 213.853 212.683 212.72 211.55C211.553 210.383 210.636 209.05 209.97 207.55C209.336 206.017 209.02 204.417 209.02 202.75C209.02 201.083 209.336 199.5 209.97 198C210.636 196.467 211.553 195.117 212.72 193.95C213.853 192.817 215.203 191.917 216.77 191.25C218.336 190.583 219.97 190.25 221.67 190.25C224.103 190.25 226.17 190.7 227.87 191.6C229.603 192.467 231.036 193.9 232.17 195.9V181.8H234.37V215H232.17V209.8C231.07 211.767 229.636 213.167 227.87 214C226.103 214.833 224.036 215.25 221.67 215.25ZM221.67 192.55C220.27 192.55 218.936 192.817 217.67 193.35C216.403 193.883 215.303 194.617 214.37 195.55C213.403 196.517 212.653 197.617 212.12 198.85C211.586 200.083 211.32 201.383 211.32 202.75C211.32 204.117 211.586 205.433 212.12 206.7C212.686 207.967 213.436 209.067 214.37 210C215.303 210.933 216.403 211.667 217.67 212.2C218.936 212.733 220.27 213 221.67 213C223.07 213 224.403 212.733 225.67 212.2C226.97 211.667 228.086 210.933 229.02 210C229.953 209.067 230.686 207.967 231.22 206.7C231.786 205.433 232.07 204.117 232.07 202.75C232.07 201.383 231.786 200.083 231.22 198.85C230.686 197.583 229.936 196.483 228.97 195.55C228.003 194.617 226.886 193.883 225.62 193.35C224.386 192.817 223.07 192.55 221.67 192.55ZM250.054 215.25C248.32 215.25 246.687 214.933 245.154 214.3C243.654 213.633 242.304 212.717 241.104 211.55C239.937 210.417 239.02 209.083 238.354 207.55C237.687 205.983 237.354 204.35 237.354 202.65C237.354 200.95 237.687 199.333 238.354 197.8C239.02 196.233 239.937 194.883 241.104 193.75C242.304 192.583 243.654 191.683 245.154 191.05C246.687 190.383 248.32 190.05 250.054 190.05C251.82 190.05 253.47 190.383 255.004 191.05C256.57 191.717 257.954 192.667 259.154 193.9L257.104 195.1C256.17 194.2 255.104 193.517 253.904 193.05C252.704 192.583 251.42 192.35 250.054 192.35C248.654 192.35 247.32 192.617 246.054 193.15C244.82 193.683 243.72 194.417 242.754 195.35C241.787 196.283 241.02 197.383 240.454 198.65C239.92 199.917 239.654 201.25 239.654 202.65C239.654 204.05 239.92 205.383 240.454 206.65C241.02 207.917 241.787 209.017 242.754 209.95C243.72 210.883 244.82 211.617 246.054 212.15C247.32 212.683 248.654 212.95 250.054 212.95C251.42 212.95 252.704 212.717 253.904 212.25C255.104 211.783 256.17 211.1 257.104 210.2L259.154 211.4C257.954 212.633 256.57 213.583 255.004 214.25C253.47 214.917 251.82 215.25 250.054 215.25ZM262.385 215V212.75H270.285C271.351 212.75 272.351 212.55 273.285 212.15C274.251 211.75 275.085 211.2 275.785 210.5C276.485 209.8 277.035 209 277.435 208.1C277.868 207.167 278.085 206.2 278.085 205.2C278.085 204.2 277.885 203.25 277.485 202.35C277.085 201.417 276.518 200.583 275.785 199.85C275.085 199.15 274.251 198.617 273.285 198.25C272.351 197.85 271.351 197.65 270.285 197.65H262.135V181.75H278.585V184H264.485V195.4H270.285C271.651 195.4 272.951 195.65 274.185 196.15C275.418 196.65 276.501 197.35 277.435 198.25C278.368 199.183 279.085 200.25 279.585 201.45C280.118 202.65 280.385 203.9 280.385 205.2C280.385 206.533 280.118 207.8 279.585 209C279.085 210.167 278.368 211.2 277.435 212.1C276.501 213.033 275.418 213.75 274.185 214.25C272.951 214.75 271.651 215 270.285 215H262.385Z" fill="#74787D"/>
<path d="M228.919 14.241L328.404 62.1502C346.363 70.799 359.407 87.1551 363.842 106.589L388.413 214.24C392.849 233.673 388.193 254.069 375.765 269.653L306.92 355.983C294.492 371.567 275.643 380.644 255.71 380.644H145.29C125.357 380.644 106.508 371.567 94.0803 355.983L25.2348 269.653C12.8066 254.069 8.15143 233.673 12.587 214.24L37.1577 106.589C41.5932 87.1551 54.6368 70.799 72.5961 62.1502L172.081 14.241C190.04 5.5923 210.96 5.59229 228.919 14.241Z" stroke="#74787D"/>
</svg>
