<svg width="345" height="345" viewBox="0 0 345 345" fill="none" xmlns="http://www.w3.org/2000/svg">
<path d="M117.924 177.508V186H115.944V177.508H107.672V186H105.692V177.508H97.2V175.528H105.692V167.256H97.2V165.276H105.692V156.74H107.672V165.276H115.944V156.74H117.924V165.276H126.46V167.256H117.924V175.528H126.46V177.508H117.924ZM115.944 167.256H107.672V175.528H115.944V167.256ZM149.281 186V180.94C148.166 182.759 146.846 184.093 145.321 184.944C143.825 185.795 142.109 186.22 140.173 186.22C138.647 186.22 137.21 185.941 135.861 185.384C134.541 184.827 133.367 184.035 132.341 183.008C131.314 182.011 130.507 180.837 129.921 179.488C129.363 178.109 129.085 176.672 129.085 175.176C129.085 173.68 129.363 172.257 129.921 170.908C130.507 169.529 131.314 168.327 132.341 167.3C133.367 166.273 134.541 165.481 135.861 164.924C137.21 164.367 138.647 164.088 140.173 164.088C142.285 164.088 144.103 164.499 145.629 165.32C147.183 166.141 148.401 167.359 149.281 168.972V164.616H151.305V186H149.281ZM140.173 166.068C138.941 166.068 137.753 166.303 136.609 166.772C135.494 167.241 134.526 167.887 133.705 168.708C132.883 169.529 132.238 170.512 131.769 171.656C131.299 172.771 131.065 173.944 131.065 175.176C131.065 176.408 131.299 177.581 131.769 178.696C132.238 179.811 132.883 180.779 133.705 181.6C134.526 182.421 135.494 183.067 136.609 183.536C137.753 184.005 138.941 184.24 140.173 184.24C141.375 184.24 142.534 184.005 143.649 183.536C144.763 183.067 145.731 182.421 146.553 181.6C147.374 180.779 148.019 179.811 148.489 178.696C148.987 177.581 149.237 176.408 149.237 175.176C149.237 173.944 149.002 172.771 148.533 171.656C148.063 170.512 147.418 169.529 146.597 168.708C145.775 167.887 144.807 167.241 143.693 166.772C142.578 166.303 141.405 166.068 140.173 166.068ZM162.821 186.176C161.618 186.176 160.459 185.956 159.345 185.516C158.259 185.047 157.321 184.416 156.529 183.624C155.707 182.803 155.062 181.879 154.593 180.852C154.153 179.796 153.933 178.681 153.933 177.508C153.933 176.276 154.182 175.088 154.681 173.944L162.249 156.74H164.449L158.817 169.72C159.843 169.368 160.635 169.133 161.193 169.016C161.75 168.869 162.293 168.796 162.821 168.796C164.023 168.796 165.167 169.031 166.253 169.5C167.367 169.94 168.321 170.556 169.113 171.348C169.934 172.169 170.565 173.108 171.005 174.164C171.474 175.22 171.709 176.335 171.709 177.508C171.709 178.681 171.474 179.796 171.005 180.852C170.565 181.879 169.934 182.803 169.113 183.624C168.321 184.416 167.367 185.047 166.253 185.516C165.167 185.956 164.023 186.176 162.821 186.176ZM162.821 170.82C161.882 170.82 160.987 170.996 160.137 171.348C159.315 171.671 158.582 172.14 157.937 172.756C156.617 174.076 155.957 175.66 155.957 177.508C155.957 179.385 156.617 180.955 157.937 182.216C158.582 182.832 159.315 183.316 160.137 183.668C160.987 183.991 161.882 184.152 162.821 184.152C163.759 184.152 164.639 183.991 165.461 183.668C166.311 183.316 167.045 182.832 167.661 182.216C169.01 180.925 169.685 179.356 169.685 177.508C169.685 175.689 169.01 174.105 167.661 172.756C167.045 172.14 166.311 171.671 165.461 171.348C164.639 170.996 163.759 170.82 162.821 170.82ZM182.065 186H179.953L186.069 158.764H173.925V156.74H188.665L182.065 186ZM191.956 186V184.02H198.908C199.847 184.02 200.727 183.844 201.548 183.492C202.399 183.14 203.132 182.656 203.748 182.04C204.364 181.424 204.848 180.72 205.2 179.928C205.582 179.107 205.772 178.256 205.772 177.376C205.772 176.496 205.596 175.66 205.244 174.868C204.892 174.047 204.394 173.313 203.748 172.668C203.132 172.052 202.399 171.583 201.548 171.26C200.727 170.908 199.847 170.732 198.908 170.732H191.736V156.74H206.212V158.72H193.804V168.752H198.908C200.111 168.752 201.255 168.972 202.34 169.412C203.426 169.852 204.379 170.468 205.2 171.26C206.022 172.081 206.652 173.02 207.092 174.076C207.562 175.132 207.796 176.232 207.796 177.376C207.796 178.549 207.562 179.664 207.092 180.72C206.652 181.747 206.022 182.656 205.2 183.448C204.379 184.269 203.426 184.9 202.34 185.34C201.255 185.78 200.111 186 198.908 186H191.956ZM221.176 186.22C219.651 186.22 218.213 185.941 216.864 185.384C215.544 184.797 214.356 183.991 213.3 182.964C212.273 181.967 211.467 180.793 210.88 179.444C210.293 178.065 210 176.628 210 175.132C210 173.636 210.293 172.213 210.88 170.864C211.467 169.485 212.273 168.297 213.3 167.3C214.356 166.273 215.544 165.481 216.864 164.924C218.213 164.337 219.651 164.044 221.176 164.044C222.731 164.044 224.183 164.337 225.532 164.924C226.911 165.511 228.128 166.347 229.184 167.432L227.38 168.488C226.559 167.696 225.62 167.095 224.564 166.684C223.508 166.273 222.379 166.068 221.176 166.068C219.944 166.068 218.771 166.303 217.656 166.772C216.571 167.241 215.603 167.887 214.752 168.708C213.901 169.529 213.227 170.497 212.728 171.612C212.259 172.727 212.024 173.9 212.024 175.132C212.024 176.364 212.259 177.537 212.728 178.652C213.227 179.767 213.901 180.735 214.752 181.556C215.603 182.377 216.571 183.023 217.656 183.492C218.771 183.961 219.944 184.196 221.176 184.196C222.379 184.196 223.508 183.991 224.564 183.58C225.62 183.169 226.559 182.568 227.38 181.776L229.184 182.832C228.128 183.917 226.911 184.753 225.532 185.34C224.183 185.927 222.731 186.22 221.176 186.22ZM232.027 186V184.02H238.979C239.918 184.02 240.798 183.844 241.619 183.492C242.47 183.14 243.203 182.656 243.819 182.04C244.435 181.424 244.919 180.72 245.271 179.928C245.653 179.107 245.843 178.256 245.843 177.376C245.843 176.496 245.667 175.66 245.315 174.868C244.963 174.047 244.465 173.313 243.819 172.668C243.203 172.052 242.47 171.583 241.619 171.26C240.798 170.908 239.918 170.732 238.979 170.732H231.807V156.74H246.283V158.72H233.875V168.752H238.979C240.182 168.752 241.326 168.972 242.411 169.412C243.497 169.852 244.45 170.468 245.271 171.26C246.093 172.081 246.723 173.02 247.163 174.076C247.633 175.132 247.867 176.232 247.867 177.376C247.867 178.549 247.633 179.664 247.163 180.72C246.723 181.747 246.093 182.656 245.271 183.448C244.45 184.269 243.497 184.9 242.411 185.34C241.326 185.78 240.182 186 238.979 186H232.027Z" fill="#AAB5C0"/>
<path d="M200.919 14.241L278.513 51.608C296.472 60.2567 309.516 76.6128 313.951 96.0463L333.115 180.009C337.551 199.443 332.895 219.838 320.467 235.423L266.771 302.756C254.343 318.34 235.494 327.417 215.561 327.417H129.439C109.506 327.417 90.6572 318.34 78.229 302.756L24.5328 235.423C12.1046 219.838 7.44942 199.443 11.885 180.009L31.0489 96.0463C35.4845 76.6128 48.5281 60.2567 66.4873 51.608L144.081 14.241C162.04 5.59229 182.96 5.59229 200.919 14.241Z" stroke="#AAB5C0"/>
</svg>
