<svg width="1399" height="1398" viewBox="0 0 1399 1398" fill="none" xmlns="http://www.w3.org/2000/svg">
<rect x="268.087" y="1053.27" width="37.2275" height="120.037" rx="3.5" transform="rotate(-46 268.087 1053.27)" fill="#92BCDA" stroke="white" stroke-width="3"/>
<mask id="path-2-inside-1_488_2" fill="white">
<path fill-rule="evenodd" clip-rule="evenodd" d="M698.432 1222.94C987.829 1222.94 1222.43 988.334 1222.43 698.937C1222.43 409.539 987.829 174.937 698.432 174.937C409.034 174.937 174.432 409.539 174.432 698.937C174.432 988.334 409.034 1222.94 698.432 1222.94ZM698.432 1158.94C952.483 1158.94 1158.43 952.764 1158.43 698.437C1158.43 444.109 952.483 237.937 698.432 237.937C444.381 237.937 238.432 444.109 238.432 698.437C238.432 952.764 444.381 1158.94 698.432 1158.94Z"/>
</mask>
<path fill-rule="evenodd" clip-rule="evenodd" d="M698.432 1222.94C987.829 1222.94 1222.43 988.334 1222.43 698.937C1222.43 409.539 987.829 174.937 698.432 174.937C409.034 174.937 174.432 409.539 174.432 698.937C174.432 988.334 409.034 1222.94 698.432 1222.94ZM698.432 1158.94C952.483 1158.94 1158.43 952.764 1158.43 698.437C1158.43 444.109 952.483 237.937 698.432 237.937C444.381 237.937 238.432 444.109 238.432 698.437C238.432 952.764 444.381 1158.94 698.432 1158.94Z" fill="#92BCDA"/>
<path d="M1219.43 698.937C1219.43 986.677 986.172 1219.94 698.432 1219.94V1225.94C989.486 1225.94 1225.43 989.991 1225.43 698.937H1219.43ZM698.432 177.937C986.172 177.937 1219.43 411.196 1219.43 698.937H1225.43C1225.43 407.882 989.486 171.937 698.432 171.937V177.937ZM177.432 698.937C177.432 411.196 410.691 177.937 698.432 177.937V171.937C407.378 171.937 171.432 407.882 171.432 698.937H177.432ZM698.432 1219.94C410.691 1219.94 177.432 986.677 177.432 698.937H171.432C171.432 989.991 407.378 1225.94 698.432 1225.94V1219.94ZM1155.43 698.437C1155.43 951.11 950.823 1155.94 698.432 1155.94V1161.94C954.143 1161.94 1161.43 954.417 1161.43 698.437H1155.43ZM698.432 240.937C950.823 240.937 1155.43 445.763 1155.43 698.437H1161.43C1161.43 442.456 954.143 234.937 698.432 234.937V240.937ZM241.432 698.437C241.432 445.763 446.041 240.937 698.432 240.937V234.937C442.721 234.937 235.432 442.456 235.432 698.437H241.432ZM698.432 1155.94C446.041 1155.94 241.432 951.11 241.432 698.437H235.432C235.432 954.417 442.721 1161.94 698.432 1161.94V1155.94Z" fill="white" mask="url(#path-2-inside-1_488_2)"/>
<mask id="path-4-inside-2_488_2" fill="white">
<path fill-rule="evenodd" clip-rule="evenodd" d="M697.932 1099.94C919.674 1099.94 1099.43 920.179 1099.43 698.437C1099.43 476.694 919.674 296.937 697.932 296.937C476.189 296.937 296.432 476.694 296.432 698.437C296.432 920.179 476.189 1099.94 697.932 1099.94ZM697.432 999.937C864.222 999.937 999.432 864.727 999.432 697.937C999.432 531.147 864.222 395.937 697.432 395.937C530.642 395.937 395.432 531.147 395.432 697.937C395.432 864.727 530.642 999.937 697.432 999.937Z"/>
</mask>
<path fill-rule="evenodd" clip-rule="evenodd" d="M697.932 1099.94C919.674 1099.94 1099.43 920.179 1099.43 698.437C1099.43 476.694 919.674 296.937 697.932 296.937C476.189 296.937 296.432 476.694 296.432 698.437C296.432 920.179 476.189 1099.94 697.932 1099.94ZM697.432 999.937C864.222 999.937 999.432 864.727 999.432 697.937C999.432 531.147 864.222 395.937 697.432 395.937C530.642 395.937 395.432 531.147 395.432 697.937C395.432 864.727 530.642 999.937 697.432 999.937Z" fill="#92BCDA"/>
<path d="M1096.43 698.437C1096.43 918.522 918.017 1096.94 697.932 1096.94V1102.94C921.331 1102.94 1102.43 921.836 1102.43 698.437H1096.43ZM697.932 299.937C918.017 299.937 1096.43 478.351 1096.43 698.437H1102.43C1102.43 475.037 921.331 293.937 697.932 293.937V299.937ZM299.432 698.437C299.432 478.351 477.846 299.937 697.932 299.937V293.937C474.532 293.937 293.432 475.037 293.432 698.437H299.432ZM697.932 1096.94C477.846 1096.94 299.432 918.522 299.432 698.437H293.432C293.432 921.836 474.532 1102.94 697.932 1102.94V1096.94ZM996.432 697.937C996.432 863.07 862.565 996.937 697.432 996.937V1002.94C865.878 1002.94 1002.43 866.383 1002.43 697.937H996.432ZM697.432 398.937C862.565 398.937 996.432 532.803 996.432 697.937H1002.43C1002.43 529.49 865.878 392.937 697.432 392.937V398.937ZM398.432 697.937C398.432 532.803 532.299 398.937 697.432 398.937V392.937C528.985 392.937 392.432 529.49 392.432 697.937H398.432ZM697.432 996.937C532.299 996.937 398.432 863.07 398.432 697.937H392.432C392.432 866.383 528.985 1002.94 697.432 1002.94V996.937Z" fill="white" mask="url(#path-4-inside-2_488_2)"/>
<mask id="path-6-inside-3_488_2" fill="white">
<path fill-rule="evenodd" clip-rule="evenodd" d="M699.579 958.231C842.149 958.231 957.726 842.654 957.726 700.084C957.726 557.513 842.149 441.937 699.579 441.937C557.008 441.937 441.432 557.513 441.432 700.084C441.432 842.654 557.008 958.231 699.579 958.231ZM698.808 915.078C817.972 915.078 914.573 818.477 914.573 699.313C914.573 580.15 817.972 483.548 698.808 483.548C579.644 483.548 483.043 580.15 483.043 699.313C483.043 818.477 579.644 915.078 698.808 915.078Z"/>
</mask>
<path fill-rule="evenodd" clip-rule="evenodd" d="M699.579 958.231C842.149 958.231 957.726 842.654 957.726 700.084C957.726 557.513 842.149 441.937 699.579 441.937C557.008 441.937 441.432 557.513 441.432 700.084C441.432 842.654 557.008 958.231 699.579 958.231ZM698.808 915.078C817.972 915.078 914.573 818.477 914.573 699.313C914.573 580.15 817.972 483.548 698.808 483.548C579.644 483.548 483.043 580.15 483.043 699.313C483.043 818.477 579.644 915.078 698.808 915.078Z" fill="#92BCDA"/>
<path d="M954.726 700.084C954.726 840.997 840.493 955.231 699.579 955.231V961.231C843.806 961.231 960.726 844.311 960.726 700.084H954.726ZM699.579 444.937C840.493 444.937 954.726 559.17 954.726 700.084H960.726C960.726 555.856 843.806 438.937 699.579 438.937V444.937ZM444.432 700.084C444.432 559.17 558.665 444.937 699.579 444.937V438.937C555.351 438.937 438.432 555.856 438.432 700.084H444.432ZM699.579 955.231C558.665 955.231 444.432 840.997 444.432 700.084H438.432C438.432 844.311 555.351 961.231 699.579 961.231V955.231ZM911.573 699.313C911.573 816.82 816.315 912.078 698.808 912.078V918.078C819.628 918.078 917.573 820.134 917.573 699.313H911.573ZM698.808 486.548C816.315 486.548 911.573 581.806 911.573 699.313H917.573C917.573 578.493 819.628 480.548 698.808 480.548V486.548ZM486.043 699.313C486.043 581.806 581.301 486.548 698.808 486.548V480.548C577.988 480.548 480.043 578.493 480.043 699.313H486.043ZM698.808 912.078C581.301 912.078 486.043 816.82 486.043 699.313H480.043C480.043 820.134 577.988 918.078 698.808 918.078V912.078Z" fill="white" mask="url(#path-6-inside-3_488_2)"/>
<circle cx="698.432" cy="698.937" r="508.5" stroke="white" stroke-width="3"/>
<circle cx="697.432" cy="697.937" r="385.5" stroke="white" stroke-width="3"/>
<circle cx="698.932" cy="699.437" r="243" stroke="white" stroke-width="3"/>
<path d="M986.931 899.265L980.497 894.76L976.597 900.331L974.703 899.005L978.603 893.434L970.304 887.623L971.61 885.757L990.131 898.725L983.033 908.863L981.139 907.537L986.931 899.265Z" fill="white"/>
<path d="M962.919 912.505L952.009 913.162L953.957 910.715L964.867 910.058L964.995 909.899L958.638 904.837L960.099 903.002L977.76 917.065L974.16 921.586C973.341 922.615 972.335 923.35 971.143 923.791C969.955 924.265 968.729 924.404 967.464 924.209C966.186 924.031 965.033 923.533 964.004 922.714C962.976 921.895 962.232 920.882 961.772 919.676C961.317 918.502 961.178 917.276 961.355 915.997C961.536 914.751 962.037 913.614 962.855 912.585L962.919 912.505ZM974.49 917.46L966.803 911.339L964.664 914.025C964.113 914.717 963.774 915.489 963.645 916.343C963.533 917.21 963.636 918.045 963.953 918.848C964.256 919.669 964.753 920.354 965.444 920.905C966.136 921.456 966.915 921.787 967.783 921.898C968.654 922.041 969.491 921.954 970.294 921.637C971.115 921.335 971.8 920.838 972.351 920.146L974.49 917.46Z" fill="white"/>
<path d="M942.683 923.343C944.064 921.812 945.711 920.748 947.622 920.153C949.534 919.557 951.47 919.457 953.433 919.854C955.395 920.251 957.142 921.14 958.673 922.522C960.205 923.904 961.268 925.55 961.864 927.461C962.477 929.388 962.585 931.332 962.188 933.295C961.776 935.274 960.887 937.021 959.52 938.535C958.154 940.05 956.507 941.113 954.581 941.726C952.654 942.339 950.701 942.439 948.722 942.027C946.743 941.615 944.996 940.726 943.481 939.359C941.967 937.993 940.903 936.346 940.291 934.42C939.695 932.508 939.603 930.563 940.015 928.584C940.412 926.622 941.301 924.875 942.683 923.343ZM944.399 924.892C943.306 926.104 942.591 927.489 942.254 929.047C941.933 930.62 942.02 932.164 942.516 933.679C942.996 935.212 943.841 936.524 945.053 937.617C946.265 938.711 947.657 939.418 949.23 939.738C950.788 940.075 952.325 939.996 953.84 939.501C955.372 939.021 956.685 938.175 957.778 936.964C958.872 935.752 959.578 934.36 959.899 932.786C960.236 931.228 960.165 929.683 959.685 928.151C959.19 926.636 958.336 925.332 957.125 924.238C955.913 923.145 954.528 922.43 952.97 922.093C951.397 921.772 949.844 921.852 948.312 922.332C946.797 922.827 945.493 923.681 944.399 924.892Z" fill="white"/>
<path d="M940.219 958.315L924.396 942.164L926.363 940.237L947.276 945.308L934.499 932.266L936.175 930.624L951.998 946.775L950.249 948.488L928.736 943.29L941.87 956.697L940.219 958.315Z" fill="white"/>
<path d="M923.259 970.204L927.655 966.399L914.347 951.027L916.095 949.513L929.403 964.885L933.798 961.08L935.289 962.802L924.75 971.926L923.259 970.204Z" fill="white"/>
<path d="M914.718 976.986L909.912 970.689L904.533 974.794L903.213 973.065L908.591 968.959L903.806 962.689L895.806 968.795L894.403 966.957L904.241 959.449L917.959 977.422L908.121 984.93L906.718 983.093L914.718 976.986Z" fill="white"/>
<path d="M888.397 998.496L875.811 979.713L878.099 978.18L897.724 987.007L887.561 971.84L889.51 970.534L902.096 989.317L900.062 990.68L879.87 981.617L890.317 997.209L888.397 998.496Z" fill="white"/>
<path d="M872.502 981.787L883.924 1001.34L878.992 1004.22C877.211 1005.26 875.32 1005.78 873.318 1005.76C871.316 1005.75 869.44 1005.26 867.69 1004.29C865.941 1003.31 864.546 1001.94 863.505 1000.16C862.465 998.375 861.95 996.483 861.962 994.481C861.974 992.479 862.466 990.604 863.439 988.854C864.412 987.104 865.789 985.709 867.57 984.669L872.502 981.787ZM868.736 986.665C867.327 987.488 866.225 988.591 865.432 989.973C864.65 991.375 864.265 992.874 864.277 994.468C864.27 996.073 864.678 997.58 865.501 998.989C866.325 1000.4 867.437 1001.49 868.839 1002.28C870.222 1003.07 871.71 1003.46 873.304 1003.45C874.91 1003.46 876.417 1003.05 877.826 1002.22L880.732 1000.53L871.642 984.967L868.736 986.665Z" fill="white"/>
<path d="M836.396 1001.15L845.329 1021.96L840.08 1024.21C838.185 1025.02 836.245 1025.3 834.259 1025.04C832.274 1024.79 830.473 1024.07 828.856 1022.89C827.239 1021.7 826.024 1020.17 825.21 1018.27C824.396 1016.38 824.118 1014.44 824.376 1012.45C824.634 1010.47 825.353 1008.66 826.533 1007.05C827.714 1005.43 829.252 1004.21 831.147 1003.4L836.396 1001.15ZM832.059 1005.53C830.56 1006.17 829.331 1007.13 828.374 1008.4C827.425 1009.7 826.859 1011.14 826.675 1012.72C826.471 1014.31 826.691 1015.86 827.335 1017.36C827.978 1018.86 828.948 1020.08 830.243 1021.03C831.518 1021.99 832.947 1022.56 834.53 1022.74C836.123 1022.95 837.669 1022.73 839.168 1022.08L842.261 1020.76L835.152 1004.2L832.059 1005.53Z" fill="white"/>
<path d="M820.153 1029.74L817.482 1022.28L811.112 1024.57L810.379 1022.52L816.748 1020.24L814.089 1012.81L804.614 1016.2L803.835 1014.03L815.486 1009.85L823.11 1031.14L811.458 1035.31L810.679 1033.14L820.153 1029.74Z" fill="white"/>
<path d="M791.601 1017.87L805.476 1037.39L803.092 1038.08L790.96 1021.03L789.834 1041.93L787.483 1042.61L788.76 1018.7L791.601 1017.87Z" fill="white"/>
<path d="M778.553 1042.31L776.818 1034.58L770.216 1036.06L769.74 1033.93L776.342 1032.45L774.615 1024.76L764.795 1026.96L764.289 1024.7L776.365 1021.99L781.315 1044.06L769.239 1046.77L768.733 1044.51L778.553 1042.31Z" fill="white"/>
<path d="M743.136 1030.7L742.769 1028.41L752.37 1026.87L755.953 1049.2L753.637 1049.57L750.42 1029.53L743.136 1030.7Z" fill="white"/>
<path d="M727.4 1029.91C729.453 1029.71 731.386 1030.04 733.2 1030.88C735.014 1031.73 736.512 1032.96 737.695 1034.58C738.878 1036.19 739.57 1038.03 739.771 1040.08C739.972 1042.13 739.648 1044.07 738.801 1045.88C737.956 1047.72 736.726 1049.23 735.11 1050.41C733.473 1051.59 731.639 1052.29 729.608 1052.48C727.578 1052.68 725.645 1052.36 723.808 1051.51C721.972 1050.67 720.461 1049.43 719.276 1047.79C718.091 1046.15 717.399 1044.32 717.201 1042.29C717.002 1040.26 717.325 1038.32 718.17 1036.49C719.018 1034.67 720.26 1033.17 721.898 1031.99C723.513 1030.81 725.347 1030.11 727.4 1029.91ZM727.625 1032.21C726.001 1032.37 724.539 1032.92 723.241 1033.84C721.944 1034.79 720.968 1035.99 720.313 1037.44C719.636 1038.89 719.376 1040.43 719.535 1042.06C719.694 1043.68 720.247 1045.14 721.194 1046.44C722.118 1047.74 723.307 1048.72 724.76 1049.37C726.216 1050.05 727.756 1050.31 729.38 1050.15C731.004 1049.99 732.465 1049.44 733.761 1048.49C735.06 1047.57 736.048 1046.38 736.726 1044.92C737.381 1043.47 737.629 1041.93 737.47 1040.3C737.311 1038.68 736.769 1037.22 735.845 1035.92C734.898 1034.62 733.697 1033.64 732.242 1032.96C730.788 1032.3 729.249 1032.06 727.625 1032.21Z" fill="white"/>
<path d="M708.069 1053.88C706.755 1053.93 705.531 1053.64 704.398 1053.03C703.264 1052.41 702.349 1051.56 701.652 1050.47C700.955 1049.38 700.584 1048.2 700.537 1046.9C700.491 1045.61 700.776 1044.4 701.393 1043.27C702.01 1042.13 702.862 1041.22 703.948 1040.52C705.035 1039.85 706.236 1039.49 707.55 1039.44L711.525 1039.3L711.232 1031.14L713.576 1031.06L714.389 1053.65L708.069 1053.88ZM707.631 1041.72C706.748 1041.75 705.94 1041.99 705.208 1042.45C704.454 1042.93 703.876 1043.55 703.472 1044.31C703.047 1045.1 702.85 1045.94 702.882 1046.82C702.913 1047.7 703.169 1048.51 703.649 1049.24C704.106 1049.97 704.728 1050.54 705.514 1050.94C706.277 1051.37 707.101 1051.57 707.984 1051.54L711.96 1051.39L711.607 1041.57L707.631 1041.72Z" fill="white"/>
<path d="M692.313 1051.7L692.516 1043.78L685.752 1043.61L685.808 1041.44L692.572 1041.61L692.774 1033.72L682.714 1033.47L682.773 1031.15L695.145 1031.47L694.565 1054.07L682.193 1053.76L682.252 1051.45L692.313 1051.7Z" fill="white"/>
<path d="M665.942 1038.09L659.368 1029.35L662.484 1029.63L669.058 1038.36L669.261 1038.38L669.97 1030.28L672.307 1030.49L670.339 1052.98L664.581 1052.47C663.271 1052.36 662.103 1051.93 661.077 1051.18C660.026 1050.45 659.232 1049.5 658.697 1048.34C658.139 1047.18 657.917 1045.94 658.032 1044.63C658.146 1043.32 658.579 1042.14 659.331 1041.09C660.058 1040.06 661.003 1039.27 662.167 1038.71C663.306 1038.17 664.531 1037.96 665.84 1038.08L665.942 1038.09ZM668.203 1050.47L669.06 1040.68L665.639 1040.38C664.758 1040.3 663.927 1040.45 663.144 1040.81C662.359 1041.2 661.72 1041.74 661.226 1042.45C660.709 1043.16 660.412 1043.95 660.335 1044.83C660.258 1045.71 660.412 1046.54 660.799 1047.33C661.161 1048.13 661.695 1048.78 662.403 1049.28C663.109 1049.8 663.902 1050.09 664.783 1050.17L668.203 1050.47Z" fill="white"/>
<path d="M410.045 499.714L416.534 504.258L420.415 498.716L422.198 499.964L418.317 505.506L424.778 510.03L430.551 501.786L432.445 503.113L425.346 513.25L406.825 500.282L413.924 490.144L415.817 491.47L410.045 499.714Z" fill="white"/>
<path d="M440.633 492.341C439.746 493.46 438.654 494.272 437.357 494.777C436.043 495.268 434.69 495.425 433.297 495.247C431.92 495.052 430.671 494.51 429.552 493.623L417.827 484.332L419.242 482.546L430.967 491.838C431.766 492.472 432.658 492.86 433.643 493.005C434.61 493.135 435.556 493.017 436.482 492.652C437.39 492.272 438.161 491.683 438.794 490.883C439.428 490.084 439.826 489.199 439.988 488.228C440.146 487.226 440.051 486.269 439.704 485.357C439.338 484.431 438.756 483.651 437.956 483.018L426.232 473.726L427.626 471.968L439.35 481.259C440.469 482.146 441.274 483.247 441.765 484.562C442.271 485.858 442.434 487.203 442.257 488.595C442.061 489.973 441.52 491.221 440.633 492.341Z" fill="white"/>
<path d="M441.784 455.89L458.641 470.959L456.806 473.012L435.603 469.336L449.215 481.504L447.652 483.253L430.795 468.185L432.426 466.36L454.236 470.122L440.243 457.614L441.784 455.89Z" fill="white"/>
<path d="M467.835 461.977C466.355 463.447 464.637 464.435 462.68 464.941C460.723 465.448 458.768 465.441 456.814 464.922C454.861 464.402 453.149 463.403 451.679 461.924C450.21 460.444 449.221 458.726 448.715 456.769C448.193 454.796 448.191 452.832 448.71 450.879C449.23 448.893 450.221 447.173 451.684 445.719C452.874 444.537 454.256 443.66 455.828 443.088C457.385 442.5 458.996 442.289 460.663 442.455L460.463 444.763C459.149 444.662 457.866 444.85 456.614 445.327C455.363 445.772 454.27 446.457 453.338 447.384C452.18 448.534 451.398 449.902 450.992 451.487C450.586 453.041 450.589 454.603 451.001 456.175C451.412 457.747 452.193 459.112 453.343 460.27C454.494 461.428 455.853 462.218 457.423 462.64C458.976 463.046 460.531 463.051 462.087 462.655C463.659 462.244 465.024 461.463 466.181 460.313C467.114 459.386 467.815 458.306 468.284 457.074C468.753 455.809 468.941 454.519 468.849 453.205L471.158 453.02C471.297 454.671 471.075 456.282 470.493 457.85C469.911 459.419 469.025 460.795 467.835 461.977Z" fill="white"/>
<path d="M471.821 427.369L486.778 444.325L485.069 445.832L478.367 438.234L470.463 445.206L477.165 452.804L475.431 454.334L460.475 437.378L462.209 435.848L468.933 443.472L476.838 436.5L470.113 428.876L471.821 427.369Z" fill="white"/>
<path d="M494.273 427.72L488.005 432.62L490.832 440.984L488.877 442.512L481.213 419.847L483.517 418.046L503.662 430.953L501.707 432.481L494.273 427.72ZM492.344 426.466L484.103 421.17L487.254 430.445L492.344 426.466Z" fill="white"/>
<path d="M497.428 410.554L501.928 417.073L507.496 413.228L508.732 415.019L503.165 418.863L507.646 425.355L515.928 419.636L517.242 421.539L507.057 428.571L494.211 409.965L504.396 402.933L505.709 404.835L497.428 410.554Z" fill="white"/>
<path d="M521.198 391.533L522.875 398.826L521.073 399.918L519.104 392.802L521.198 391.533Z" fill="white"/>
<path d="M543.043 387.957C542.541 387.249 541.951 386.714 541.274 386.354C539.857 385.564 538.247 385.645 536.443 386.598C534.94 387.391 534.027 388.309 533.706 389.35C533.423 390.32 533.572 391.356 534.154 392.458C534.8 393.681 535.585 394.343 536.51 394.444C537.435 394.545 538.535 394.323 539.811 393.778C541.026 393.264 542.093 392.906 543.011 392.703C543.919 392.481 544.738 392.407 545.47 392.482C547.359 392.612 548.801 393.62 549.795 395.504C550.187 396.246 550.407 397.027 550.455 397.847C550.524 398.657 550.425 399.465 550.159 400.272C549.571 402.12 548.215 403.605 546.09 404.727C543.945 405.859 541.939 406.162 540.072 405.635C538.491 405.214 537.152 404.23 536.053 402.682L538.128 401.587C538.837 402.494 539.692 403.094 540.692 403.386C541.977 403.733 543.421 403.483 545.025 402.636C546.388 401.917 547.316 401.004 547.809 399.898C548.311 398.761 548.281 397.662 547.721 396.599C547.361 395.918 546.924 395.431 546.411 395.138C545.907 394.814 545.2 394.713 544.29 394.835C543.38 394.956 542.192 395.327 540.725 395.948C536.697 397.639 533.815 396.841 532.08 393.553C531.646 392.732 531.379 391.911 531.28 391.092C531.19 390.242 531.264 389.435 531.5 388.669C532.021 386.984 533.293 385.608 535.318 384.539L535.348 384.523C537.423 383.453 539.298 383.193 540.973 383.745C542.658 384.265 544.044 385.314 545.134 386.892L543.059 387.987L543.043 387.957Z" fill="white"/>
<path d="M575.657 366.432C576.884 365.96 578.133 365.831 579.406 366.046C580.679 366.261 581.821 366.769 582.833 367.569C583.845 368.37 584.583 369.373 585.047 370.579C585.511 371.785 585.635 373.024 585.42 374.297C585.206 375.57 584.698 376.712 583.897 377.724C583.088 378.715 582.07 379.447 580.843 379.919L577.131 381.347L580.06 388.963L577.87 389.806L569.754 368.702L575.657 366.432ZM580.026 377.793C580.851 377.475 581.535 376.982 582.079 376.311C582.635 375.611 582.98 374.835 583.114 373.982C583.26 373.1 583.175 372.247 582.857 371.421C582.54 370.596 582.036 369.916 581.344 369.381C580.674 368.837 579.901 368.503 579.028 368.377C578.167 368.223 577.324 368.304 576.499 368.622L572.786 370.05L576.313 379.221L580.026 377.793Z" fill="white"/>
<path d="M602.744 381.201C600.778 381.826 598.82 381.913 596.87 381.464C594.919 381.014 593.196 380.122 591.702 378.79C590.208 377.457 589.149 375.808 588.524 373.843C587.899 371.877 587.811 369.919 588.261 367.968C588.704 365.995 589.592 364.262 590.925 362.768C592.279 361.267 593.928 360.207 595.872 359.589C597.816 358.971 599.774 358.883 601.747 359.326C603.719 359.769 605.456 360.668 606.956 362.022C608.457 363.376 609.517 365.025 610.135 366.969C610.753 368.913 610.841 370.871 610.398 372.844C609.948 374.795 609.046 376.521 607.691 378.022C606.359 379.516 604.71 380.576 602.744 381.201ZM602.044 378.997C603.599 378.503 604.915 377.668 605.992 376.493C607.063 375.296 607.766 373.919 608.103 372.361C608.462 370.796 608.394 369.235 607.899 367.68C607.405 366.125 606.559 364.812 605.363 363.742C604.188 362.665 602.821 361.957 601.263 361.621C599.698 361.262 598.138 361.33 596.583 361.825C595.028 362.319 593.715 363.165 592.645 364.362C591.567 365.537 590.849 366.907 590.491 368.472C590.154 370.03 590.233 371.587 590.727 373.142C591.222 374.697 592.056 376.013 593.231 377.091C594.428 378.161 595.809 378.875 597.374 379.234C598.932 379.571 600.488 379.492 602.044 378.997Z" fill="white"/>
<path d="M619.085 368.041L628.17 374.118L625.138 374.888L616.054 368.81L615.856 368.861L617.855 376.737L615.581 377.314L610.027 355.432L615.629 354.01C616.903 353.686 618.148 353.709 619.365 354.078C620.597 354.42 621.658 355.051 622.546 355.972C623.457 356.886 624.074 357.981 624.397 359.255C624.721 360.529 624.7 361.786 624.336 363.024C623.989 364.235 623.358 365.295 622.443 366.206C621.545 367.089 620.458 367.692 619.184 368.015L619.085 368.041ZM612.869 357.096L615.287 366.62L618.615 365.774C619.472 365.557 620.21 365.147 620.829 364.546C621.443 363.922 621.866 363.195 622.099 362.364C622.355 361.528 622.374 360.681 622.156 359.824C621.939 358.967 621.518 358.232 620.895 357.619C620.288 356.978 619.569 356.541 618.738 356.307C617.901 356.052 617.055 356.033 616.198 356.251L612.869 357.096Z" fill="white"/>
<path d="M641.536 350.811L635.826 351.906L639.652 371.875L637.382 372.31L633.555 352.341L627.845 353.436L627.417 351.198L641.107 348.574L641.536 350.811Z" fill="white"/>
<path d="M654.121 348.991L655.14 356.778L661.882 355.896L662.182 358.189L655.439 359.071L656.753 369.117L654.494 369.413L651.563 346.994L663.834 345.388L664.134 347.681L654.121 348.991Z" fill="white"/>
<path d="M680.087 366.972C678.029 367.118 676.105 366.744 674.315 365.848C672.525 364.953 671.06 363.682 669.92 362.036C668.781 360.389 668.139 358.538 667.993 356.48C667.847 354.423 668.222 352.499 669.117 350.708C670.011 348.895 671.282 347.419 672.928 346.279C674.597 345.138 676.449 344.496 678.483 344.351C680.518 344.207 682.442 344.582 684.255 345.476C686.068 346.369 687.545 347.651 688.686 349.32C689.827 350.988 690.47 352.84 690.614 354.875C690.758 356.91 690.383 358.834 689.489 360.647C688.594 362.438 687.311 363.903 685.642 365.044C683.996 366.184 682.144 366.826 680.087 366.972ZM679.923 364.666C681.551 364.551 683.027 364.048 684.35 363.159C685.671 362.247 686.679 361.074 687.373 359.638C688.089 358.201 688.389 356.669 688.274 355.041C688.158 353.413 687.645 351.939 686.733 350.617C685.844 349.294 684.682 348.286 683.246 347.592C681.81 346.876 680.277 346.576 678.649 346.691C677.021 346.807 675.547 347.321 674.225 348.232C672.902 349.122 671.882 350.285 671.166 351.722C670.473 353.157 670.184 354.689 670.299 356.317C670.414 357.944 670.917 359.42 671.806 360.743C672.717 362.064 673.892 363.083 675.329 363.799C676.764 364.493 678.296 364.782 679.923 364.666Z" fill="white"/>
<path d="M704.801 363.766L704.827 366.078L695.104 366.19L694.844 343.581L697.19 343.554L697.423 363.851L704.801 363.766Z" fill="white"/>
<path d="M721.737 344.112L720.657 366.696L718.348 366.585L719.428 344.001L721.737 344.112Z" fill="white"/>
<path d="M739.108 368.478C737.057 368.258 735.229 367.548 733.626 366.35C732.022 365.152 730.805 363.642 729.975 361.82C729.145 359.999 728.84 358.062 729.06 356.012C729.281 353.961 729.99 352.133 731.188 350.529C732.389 348.903 733.9 347.675 735.722 346.844C737.566 346.017 739.502 345.712 741.531 345.93C743.559 346.147 745.387 346.857 747.013 348.057C748.639 349.258 749.866 350.78 750.694 352.624C751.522 354.469 751.826 356.405 751.609 358.433C751.391 360.462 750.681 362.289 749.481 363.915C748.282 365.519 746.761 366.735 744.917 367.563C743.095 368.393 741.159 368.698 739.108 368.478ZM739.355 366.179C740.977 366.353 742.518 366.12 743.978 365.479C745.44 364.815 746.639 363.838 747.576 362.548C748.535 361.261 749.102 359.805 749.276 358.183C749.45 356.56 749.206 355.018 748.542 353.556C747.901 352.097 746.936 350.899 745.646 349.962C744.358 349.003 742.903 348.436 741.28 348.262C739.657 348.088 738.115 348.333 736.653 348.996C735.194 349.637 733.984 350.602 733.025 351.889C732.089 353.179 731.533 354.636 731.359 356.258C731.185 357.881 731.418 359.422 732.059 360.882C732.723 362.343 733.698 363.554 734.986 364.513C736.276 365.449 737.732 366.005 739.355 366.179Z" fill="white"/>
<path d="M764.07 355.781C764.101 354.913 763.957 354.13 763.637 353.433C762.99 351.945 761.661 351.033 759.649 350.695C757.973 350.414 756.69 350.589 755.803 351.222C754.99 351.821 754.48 352.735 754.274 353.965C754.045 355.328 754.267 356.331 754.941 356.973C755.615 357.614 756.624 358.105 757.969 358.446C759.246 358.775 760.312 359.138 761.165 359.534C762.021 359.908 762.718 360.346 763.254 360.85C764.676 362.1 765.21 363.775 764.858 365.877C764.719 366.704 764.42 367.458 763.961 368.139C763.524 368.825 762.955 369.407 762.254 369.887C760.665 370.999 758.686 371.357 756.316 370.959C753.924 370.558 752.146 369.581 750.982 368.03C749.981 366.736 749.513 365.14 749.579 363.244L751.892 363.632C751.906 364.783 752.221 365.779 752.839 366.618C753.65 367.673 754.95 368.351 756.738 368.651C758.258 368.906 759.55 368.744 760.612 368.164C761.701 367.565 762.345 366.673 762.544 365.488C762.672 364.728 762.62 364.076 762.39 363.532C762.185 362.969 761.685 362.46 760.888 362.004C760.091 361.549 758.921 361.123 757.379 360.726C753.151 359.626 751.345 357.242 751.96 353.576C752.114 352.66 752.4 351.846 752.818 351.135C753.262 350.405 753.811 349.807 754.464 349.342C755.899 348.319 757.746 347.997 760.004 348.376L760.038 348.382C762.336 348.79 763.984 349.722 764.981 351.176C766.004 352.612 766.47 354.288 766.378 356.203L764.065 355.815L764.07 355.781Z" fill="white"/>
</svg>
