<svg width="680" height="680" viewBox="0 0 680 680" fill="none" xmlns="http://www.w3.org/2000/svg">
<mask id="path-1-inside-1_579_78" fill="white">
<path fill-rule="evenodd" clip-rule="evenodd" d="M340 680C527.777 680 680 527.777 680 340C680 152.223 527.777 0 340 0C152.223 0 0 152.223 0 340C0 527.777 152.223 680 340 680ZM339.5 652C512.089 652 652 512.089 652 339.5C652 166.911 512.089 27 339.5 27C166.911 27 27 166.911 27 339.5C27 512.089 166.911 652 339.5 652Z"/>
</mask>
<path fill-rule="evenodd" clip-rule="evenodd" d="M340 680C527.777 680 680 527.777 680 340C680 152.223 527.777 0 340 0C152.223 0 0 152.223 0 340C0 527.777 152.223 680 340 680ZM339.5 652C512.089 652 652 512.089 652 339.5C652 166.911 512.089 27 339.5 27C166.911 27 27 166.911 27 339.5C27 512.089 166.911 652 339.5 652Z" fill="#3B71AE"/>
<path d="M677 340C677 526.12 526.12 677 340 677V683C529.434 683 683 529.434 683 340H677ZM340 3C526.12 3 677 153.88 677 340H683C683 150.566 529.434 -3 340 -3V3ZM3 340C3 153.88 153.88 3 340 3V-3C150.566 -3 -3 150.566 -3 340H3ZM340 677C153.88 677 3 526.12 3 340H-3C-3 529.434 150.566 683 340 683V677ZM649 339.5C649 510.432 510.432 649 339.5 649V655C513.746 655 655 513.746 655 339.5H649ZM339.5 30C510.432 30 649 168.568 649 339.5H655C655 165.254 513.746 24 339.5 24V30ZM30 339.5C30 168.568 168.568 30 339.5 30V24C165.254 24 24 165.254 24 339.5H30ZM339.5 649C168.568 649 30 510.432 30 339.5H24C24 513.746 165.254 655 339.5 655V649Z" fill="#ECF3E1" mask="url(#path-1-inside-1_579_78)"/>
<mask id="path-3-inside-2_579_78" fill="white">
<path fill-rule="evenodd" clip-rule="evenodd" d="M339.5 578C470.668 578 577 471.668 577 340.5C577 209.332 470.668 103 339.5 103C208.332 103 102 209.332 102 340.5C102 471.668 208.332 578 339.5 578ZM339.5 553C456.861 553 552 457.861 552 340.5C552 223.139 456.861 128 339.5 128C222.139 128 127 223.139 127 340.5C127 457.861 222.139 553 339.5 553Z"/>
</mask>
<path fill-rule="evenodd" clip-rule="evenodd" d="M339.5 578C470.668 578 577 471.668 577 340.5C577 209.332 470.668 103 339.5 103C208.332 103 102 209.332 102 340.5C102 471.668 208.332 578 339.5 578ZM339.5 553C456.861 553 552 457.861 552 340.5C552 223.139 456.861 128 339.5 128C222.139 128 127 223.139 127 340.5C127 457.861 222.139 553 339.5 553Z" fill="#3B71AE"/>
<path d="M574 340.5C574 470.011 469.011 575 339.5 575V581C472.324 581 580 473.324 580 340.5H574ZM339.5 106C469.011 106 574 210.989 574 340.5H580C580 207.676 472.324 100 339.5 100V106ZM105 340.5C105 210.989 209.989 106 339.5 106V100C206.676 100 99 207.676 99 340.5H105ZM339.5 575C209.989 575 105 470.011 105 340.5H99C99 473.324 206.676 581 339.5 581V575ZM549 340.5C549 456.204 455.204 550 339.5 550V556C458.517 556 555 459.517 555 340.5H549ZM339.5 131C455.204 131 549 224.796 549 340.5H555C555 221.483 458.517 125 339.5 125V131ZM130 340.5C130 224.796 223.796 131 339.5 131V125C220.483 125 124 221.483 124 340.5H130ZM339.5 550C223.796 550 130 456.204 130 340.5H124C124 459.517 220.483 556 339.5 556V550Z" fill="#ECF3E1" mask="url(#path-3-inside-2_579_78)"/>
<mask id="path-5-inside-3_579_78" fill="white">
<path fill-rule="evenodd" clip-rule="evenodd" d="M339.5 508C432.008 508 507 433.008 507 340.5C507 247.992 432.008 173 339.5 173C246.992 173 172 247.992 172 340.5C172 433.008 246.992 508 339.5 508ZM339 480C416.32 480 479 417.32 479 340C479 262.68 416.32 200 339 200C261.68 200 199 262.68 199 340C199 417.32 261.68 480 339 480Z"/>
</mask>
<path fill-rule="evenodd" clip-rule="evenodd" d="M339.5 508C432.008 508 507 433.008 507 340.5C507 247.992 432.008 173 339.5 173C246.992 173 172 247.992 172 340.5C172 433.008 246.992 508 339.5 508ZM339 480C416.32 480 479 417.32 479 340C479 262.68 416.32 200 339 200C261.68 200 199 262.68 199 340C199 417.32 261.68 480 339 480Z" fill="#3B71AE"/>
<path d="M504 340.5C504 431.351 430.351 505 339.5 505V511C433.665 511 510 434.665 510 340.5H504ZM339.5 176C430.351 176 504 249.649 504 340.5H510C510 246.335 433.665 170 339.5 170V176ZM175 340.5C175 249.649 248.649 176 339.5 176V170C245.335 170 169 246.335 169 340.5H175ZM339.5 505C248.649 505 175 431.351 175 340.5H169C169 434.665 245.335 511 339.5 511V505ZM476 340C476 415.663 414.663 477 339 477V483C417.977 483 482 418.977 482 340H476ZM339 203C414.663 203 476 264.337 476 340H482C482 261.023 417.977 197 339 197V203ZM202 340C202 264.337 263.337 203 339 203V197C260.023 197 196 261.023 196 340H202ZM339 477C263.337 477 202 415.663 202 340H196C196 418.977 260.023 483 339 483V477Z" fill="#ECF3E1" mask="url(#path-5-inside-3_579_78)"/>
<ellipse cx="276.5" cy="188" rx="11.5" ry="12" fill="white"/>
<ellipse cx="399.5" cy="568" rx="11.5" ry="12" fill="white"/>
<ellipse cx="50.5" cy="517" rx="11.5" ry="12" fill="white"/>
</svg>
